<?xml version="1.0" standalone="no"?>
<!DOCTYPE svg PUBLIC "-//W3C//DTD SVG 20010904//EN"
 "http://www.w3.org/TR/2001/REC-SVG-20010904/DTD/svg10.dtd">
<svg version="1.0" xmlns="http://www.w3.org/2000/svg"
 width="736.000000pt" height="414.000000pt" viewBox="0 0 736.000000 414.000000"
 preserveAspectRatio="xMidYMid meet">
<metadata>
Created by potrace 1.16, written by Peter Selinger 2001-2019
</metadata>
<g transform="translate(0.000000,414.000000) scale(0.100000,-0.100000)"
fill="#000000" stroke="none">
<path d="M0 2130 l0 -2010 28 0 c66 0 95 -27 52 -50 -14 -7 -26 -8 -39 0 -33
17 -41 11 -41 -30 l0 -40 435 0 c283 0 435 3 435 10 0 13 47 13 55 0 4 -6 154
-10 418 -9 276 0 404 3 388 10 -33 13 -12 34 24 25 22 -6 25 -9 15 -21 -11
-13 13 -15 188 -15 192 0 200 1 195 19 -3 13 2 23 17 31 29 15 108 -7 116 -32
6 -21 25 -23 42 -6 9 9 15 9 24 0 9 -9 72 -12 224 -12 l212 0 -4 23 -5 22 17
-23 c14 -19 25 -22 90 -22 40 0 76 5 79 10 4 7 12 7 25 0 11 -6 116 -10 255
-10 l236 0 -7 45 c-3 25 -3 53 1 62 6 17 7 17 20 -1 11 -15 15 -16 19 -5 2 8
7 21 9 29 3 8 6 -7 6 -34 1 -38 -2 -47 -13 -43 -14 6 -26 -12 -26 -39 0 -12
39 -14 239 -14 l240 0 3 52 c4 68 22 68 26 1 3 -52 4 -53 34 -53 25 0 29 3 22
18 -21 46 -15 214 7 181 7 -12 10 -12 18 0 6 9 11 10 15 2 10 -16 26 -14 26 4
0 8 4 15 9 15 14 0 24 -81 19 -155 l-4 -65 107 0 c88 0 108 3 113 16 3 8 10
12 16 9 5 -3 10 1 10 10 0 9 5 13 10 10 6 -4 8 -15 5 -26 -6 -19 17 -19 1263
-19 l1270 0 -5 21 c-5 17 -2 20 18 17 16 -2 23 -9 21 -20 -3 -17 12 -18 192
-18 l196 0 0 2070 0 2070 -1350 0 c-1343 0 -1350 0 -1350 -20 0 -11 -4 -20
-10 -20 -5 0 -10 9 -10 20 0 19 -7 20 -196 20 -152 0 -195 -3 -191 -12 2 -7 9
-12 14 -11 6 1 13 -17 16 -41 7 -48 -1 -118 -13 -111 -4 2 -15 -4 -25 -15 -24
-26 -58 -25 -91 3 -23 21 -26 27 -17 53 5 16 19 34 31 40 12 6 19 14 15 17 -3
4 -12 2 -19 -4 -11 -9 -20 -6 -39 12 -29 28 -31 44 -7 58 12 7 -35 10 -160 11
-171 0 -178 -1 -178 -20 0 -19 -19 -27 -45 -20 -5 2 -21 4 -35 5 -14 1 -26 9
-28 18 -3 16 -135 17 -1838 17 l-1834 0 0 -2010z m5086 1829 c0 -30 4 -62 8
-72 5 -10 3 -30 -4 -47 -9 -21 -9 -38 -2 -62 23 -74 24 -113 3 -139 -12 -14
-20 -19 -21 -10 0 7 -6 11 -14 8 -22 -8 -33 93 -12 109 9 6 19 25 22 41 5 24
1 35 -19 54 -22 21 -24 29 -17 64 4 22 8 30 9 18 0 -13 6 -23 12 -23 7 0 8 7
4 18 -15 39 -17 73 -5 87 22 27 35 10 36 -46z m-883 -140 c4 -15 11 -20 22
-15 10 4 18 -2 24 -16 5 -14 10 -17 15 -10 12 20 36 13 36 -10 0 -41 -12 -68
-29 -68 -23 -1 -46 -20 -65 -57 -19 -37 -19 -37 -48 -20 -48 27 -79 79 -56 93
5 3 8 21 6 40 -2 28 3 39 27 59 37 30 61 31 68 4z m-1588 -316 c53 -7 78 -30
70 -62 -4 -14 -1 -27 6 -32 19 -11 -17 -62 -39 -55 -52 15 -72 17 -72 7 0 -6
-7 -11 -16 -11 -8 0 -13 4 -10 8 3 5 -6 15 -20 23 -20 10 -24 19 -20 36 3 13
9 35 12 51 10 50 13 54 32 47 9 -4 35 -9 57 -12z m-1865 -88 c0 -8 -9 -20 -21
-27 -11 -7 -34 -40 -50 -74 -24 -50 -43 -72 -109 -124 -44 -35 -80 -69 -80
-77 0 -7 -11 -18 -25 -23 -13 -5 -31 -23 -40 -39 -13 -26 -60 -51 -98 -51 -10
0 -3 102 8 120 11 18 7 60 -7 77 -10 13 18 62 37 63 6 0 23 20 38 44 42 67 53
73 80 47 29 -26 71 -27 97 -1 11 11 24 20 29 20 5 0 14 7 21 15 7 8 15 13 19
10 4 -2 21 5 37 15 36 23 64 25 64 5z m1647 -156 c7 -7 17 -8 30 -1 22 12 53
-6 53 -31 0 -25 35 -38 106 -40 35 -1 64 -5 64 -8 0 -4 11 -17 25 -30 13 -13
25 -29 25 -36 0 -6 18 -22 40 -34 45 -25 45 -26 25 -53 -13 -17 -26 -19 -115
-17 -88 2 -106 5 -137 27 -20 13 -46 24 -59 24 -12 0 -26 5 -29 11 -4 6 -14 8
-22 5 -27 -11 -78 15 -104 53 -31 43 -42 71 -29 71 5 0 24 13 42 29 29 25 51
38 69 40 3 1 10 -4 16 -10z m-669 -400 c80 -20 87 -40 28 -79 l-28 -18 28 -6
c16 -4 74 -24 129 -44 99 -38 129 -64 89 -79 -18 -7 -112 14 -131 29 -15 12
-53 1 -53 -14 0 -6 8 -20 17 -30 15 -17 15 -19 -3 -33 -25 -19 -26 -19 -140
11 -132 34 -145 46 -100 95 23 25 23 26 4 38 -23 14 -21 49 3 64 12 8 26 6 52
-6 43 -21 61 -21 77 -3 9 12 5 16 -24 21 -39 8 -53 21 -53 48 0 21 35 23 105
6z m3191 -33 c9 -11 21 -12 53 -5 22 6 43 8 45 5 9 -8 12 -152 3 -165 -4 -7
-26 -21 -48 -31 -32 -15 -40 -15 -35 -4 3 8 -3 16 -13 20 -63 21 -74 29 -68
49 4 11 8 42 9 70 1 28 5 56 9 63 10 16 31 15 45 -2z m-1243 -201 c3 -39 0
-76 -9 -105 l-14 -45 -12 28 c-6 16 -11 37 -11 47 0 10 -4 22 -10 25 -6 4 -10
-12 -10 -39 0 -56 -20 -62 -38 -12 -9 23 -10 60 -6 115 7 85 19 112 29 64 19
-91 20 -92 34 -33 8 30 16 59 19 65 8 13 21 -38 28 -110z m-181 55 c0 -25 4
-52 8 -62 9 -17 -26 -98 -42 -98 -5 0 -12 13 -16 29 -9 43 -31 58 -53 38 -14
-13 -21 -14 -30 -5 -29 29 2 66 36 42 19 -13 22 -13 33 7 7 15 8 28 1 43 -14
32 3 58 36 54 25 -3 27 -7 27 -48z m816 -97 c2 -20 8 -127 9 -158 2 -48 -7
-166 -13 -172 -4 -3 -7 -1 -7 5 0 21 -17 13 -24 -10 -18 -59 -25 41 -18 247 3
65 5 75 13 55 6 -14 8 -42 5 -62 -3 -20 -2 -40 4 -43 6 -4 10 23 10 74 0 47 4
81 10 81 6 0 11 -8 11 -17z m617 9 c9 -5 27 -14 39 -20 18 -10 24 -9 32 6 8
15 11 13 21 -12 6 -16 8 -42 5 -58 -5 -20 -2 -30 9 -34 9 -3 16 -15 16 -26 0
-11 7 -26 15 -35 16 -16 14 -31 -10 -88 -7 -16 -20 -52 -30 -78 -19 -53 -21
-53 -102 -15 -29 13 -43 26 -43 39 0 10 -7 19 -15 19 -11 0 -15 11 -15 36 0
47 38 124 56 117 19 -7 18 31 -1 47 -8 7 -15 20 -15 29 0 9 -5 22 -11 28 -14
14 -2 53 17 53 8 0 22 -4 32 -8z m-1099 -84 c1 -26 19 -41 22 -18 1 6 2 15 3
22 0 6 6 13 12 15 24 8 33 -143 13 -194 l-12 -28 -10 28 c-13 33 -23 34 -31 5
-6 -22 -7 -21 -21 11 -15 33 -15 54 2 181 4 36 7 41 14 25 4 -11 8 -32 8 -47z
m-2272 -364 c123 -28 150 -42 139 -69 -8 -21 -51 -18 -191 14 -99 23 -126 40
-105 65 17 21 26 20 157 -10z m928 -54 c4 -6 16 -8 26 -5 11 4 27 1 35 -6 13
-10 13 -14 -1 -29 -15 -17 -14 -20 10 -44 25 -25 26 -29 12 -49 -12 -18 -23
-22 -59 -20 -47 2 -88 20 -88 37 1 6 10 22 20 35 15 17 26 22 45 17 17 -4 25
-2 25 6 0 21 -13 33 -35 33 -11 0 -21 8 -23 18 -4 19 22 24 33 7z m1647 -85
c9 -20 9 -37 0 -73 -9 -34 -9 -57 -2 -82 9 -31 13 -112 10 -258 0 -24 -8 -57
-16 -75 -15 -28 -17 -29 -27 -11 -14 23 -18 481 -5 507 12 24 26 21 40 -8z
m-3152 -170 c10 -12 10 -18 0 -30 -7 -9 -10 -18 -7 -21 7 -7 50 15 59 31 5 8
30 13 66 13 54 0 59 -2 75 -31 14 -23 21 -27 29 -19 7 7 22 12 34 12 21 0 154
-65 164 -81 9 -13 60 -29 92 -29 17 0 48 -5 69 -12 31 -9 38 -15 34 -29 -4
-11 0 -19 12 -21 14 -2 12 -6 -10 -21 -20 -13 -32 -15 -45 -8 -9 6 -12 11 -4
11 6 0 12 3 12 8 0 4 -19 8 -42 9 -86 4 -214 13 -268 18 -30 3 -67 5 -81 5
-15 0 -29 7 -33 15 -3 10 -19 15 -48 15 -46 0 -53 3 -82 37 -15 19 -17 25 -6
38 20 24 5 29 -42 15 -79 -22 -93 -23 -108 -5 -12 15 -12 19 5 31 11 7 26 19
34 26 21 18 54 37 67 38 6 0 17 -7 24 -15z m1090 -297 c19 -9 56 -26 83 -37
26 -11 47 -24 47 -28 0 -17 -68 -33 -134 -32 -76 2 -140 20 -144 42 -2 8 -14
20 -27 27 -14 7 -25 16 -25 20 0 13 47 28 73 23 17 -3 32 1 43 11 14 14 19 15
33 4 9 -7 32 -21 51 -30z m1696 -101 c3 -8 0 -26 -6 -41 -7 -20 -7 -33 2 -49
6 -12 10 -42 8 -67 -8 -123 -6 -163 12 -168 19 -5 23 -22 9 -37 -5 -6 -14 -27
-21 -48 -6 -21 -22 -44 -34 -52 -31 -21 -51 -65 -34 -76 7 -5 19 -2 29 7 22
20 28 18 39 -12 12 -32 -4 -58 -31 -51 -10 3 -27 -5 -39 -18 -12 -13 -28 -21
-36 -18 -16 6 -19 56 -4 83 8 15 6 28 -9 55 l-18 35 -8 -43 -8 -42 -11 45 c-7
26 -18 46 -28 48 -13 3 -14 9 -6 40 5 20 14 60 20 87 17 82 17 83 34 60 13
-17 16 -18 24 -5 5 8 10 24 11 35 3 31 5 37 23 77 9 21 16 42 16 48 0 6 7 13
15 16 10 4 15 20 15 48 0 24 3 46 7 49 10 11 23 8 29 -6z m729 -218 l-1 -126
26 -1 c21 0 29 6 39 34 16 44 36 38 35 -10 -2 -50 -33 -146 -47 -143 -7 1 -13
-14 -15 -35 -2 -22 1 -38 7 -38 6 0 11 7 11 15 0 8 5 15 10 15 12 0 17 -155
10 -315 0 -5 -5 -3 -10 5 -5 8 -7 29 -4 47 3 17 1 39 -4 49 -9 16 -11 13 -17
-16 -3 -19 -5 -51 -3 -70 2 -28 -1 -35 -17 -38 -11 -2 -23 -9 -27 -16 -5 -7
-8 -6 -9 4 -3 25 -9 262 -9 308 1 23 -4 42 -10 42 -13 0 -32 -48 -24 -61 3 -6
-6 -22 -20 -36 -44 -44 -77 -7 -39 46 16 23 17 23 30 5 14 -18 14 -16 12 16
-1 19 -1 58 0 85 1 44 3 48 15 32 12 -15 15 -13 29 25 11 32 14 73 12 163 -2
66 -1 134 2 150 11 59 20 -6 18 -136z m-4195 91 c0 -5 -4 -10 -9 -10 -4 0 -16
-20 -25 -44 -18 -46 -42 -68 -87 -79 -15 -4 -29 -16 -32 -27 -3 -14 -13 -20
-31 -20 -21 0 -26 -5 -26 -24 0 -17 -7 -27 -22 -32 -27 -8 -47 16 -40 51 3 20
9 24 26 19 19 -4 24 1 36 36 10 30 17 39 30 35 12 -4 25 6 42 32 30 45 138 94
138 63z m1020 -205 c33 -19 38 -21 88 -34 23 -7 42 -16 42 -22 0 -6 -8 -8 -17
-5 -67 18 -83 18 -83 -3 0 -11 -5 -23 -11 -26 -13 -8 -69 14 -69 27 0 6 -19 7
-48 3 -36 -5 -51 -3 -60 8 -9 11 -8 17 6 29 46 40 106 50 152 23z m347 -106
c39 -19 44 -19 65 -5 31 22 51 20 75 -8 18 -20 28 -23 61 -19 68 9 148 -31
107 -54 -7 -5 -13 -17 -12 -28 3 -29 -48 -33 -77 -6 -15 14 -26 17 -36 11 -19
-12 -68 -13 -106 -1 -16 5 -54 14 -84 21 -46 11 -104 33 -119 46 -9 8 23 34
41 34 14 0 18 5 14 15 -8 21 19 19 71 -6z m2291 -296 c0 -54 2 -173 6 -265 4
-111 2 -177 -5 -195 l-11 -28 -11 23 c-14 31 -26 28 -43 -13 -21 -50 -40 -44
-61 20 l-10 30 -13 -27 c-7 -16 -17 -28 -21 -28 -11 0 -20 56 -18 120 2 72 2
135 1 190 -1 25 1 56 4 70 5 24 6 24 20 6 9 -13 12 -32 7 -58 -3 -22 0 -56 7
-77 9 -29 9 -43 1 -59 -11 -21 -5 -132 8 -132 16 0 28 73 18 106 -8 26 -7 48
2 84 7 27 10 54 6 59 -3 6 -1 29 6 50 9 30 9 44 1 54 -14 16 -4 57 13 57 7 0
18 -7 25 -15 10 -12 9 -19 -2 -37 -12 -19 -13 -28 -2 -53 7 -17 10 -46 7 -66
-3 -23 -1 -39 7 -44 28 -17 34 16 33 168 0 83 1 155 4 160 13 22 21 -13 21
-100z m-2221 3 c79 -17 119 -41 102 -62 -6 -8 -24 -14 -40 -14 -41 0 -224 37
-248 50 -23 12 -28 35 -8 44 16 7 116 -2 194 -18z m1597 -31 c16 -19 22 -21
46 -12 40 15 63 -5 54 -47 -9 -45 -27 -61 -53 -47 -11 7 -21 18 -21 26 0 20
-26 19 -34 0 -3 -8 -14 -15 -25 -15 -10 0 -22 -7 -25 -16 -5 -13 -2 -15 15
-11 15 4 23 0 26 -13 3 -11 27 -27 59 -40 54 -22 62 -32 45 -59 -6 -9 -18 -11
-40 -6 -18 4 -31 3 -31 -3 0 -5 13 -12 29 -15 32 -7 56 -39 47 -63 -3 -9 -20
-14 -46 -14 -44 0 -47 -14 -5 -24 13 -3 36 -18 50 -32 25 -25 25 -27 8 -39
-10 -8 -44 -26 -75 -41 -55 -26 -58 -27 -77 -10 -18 16 -23 16 -104 -3 -97
-24 -100 -24 -92 -11 3 5 -13 18 -37 30 -28 13 -44 16 -48 9 -5 -7 -19 -3 -41
10 -19 12 -40 21 -48 21 -8 0 -22 7 -32 16 -10 9 -37 18 -61 21 -24 3 -49 10
-55 15 -16 13 -142 35 -211 37 -37 1 -65 9 -91 25 -28 18 -49 23 -77 21 -22
-2 -45 2 -54 9 -8 7 -39 13 -68 14 -63 2 -124 31 -140 66 -16 36 10 50 57 30
46 -19 60 -18 82 10 13 17 25 22 44 19 24 -5 36 -33 14 -33 -19 0 -3 -25 17
-25 10 0 48 -4 84 -9 74 -9 116 2 128 34 7 20 9 19 42 -11 57 -50 107 -72 157
-66 28 3 46 0 51 -8 4 -6 30 -15 58 -18 49 -5 52 -4 57 19 2 13 -2 32 -9 41
-10 15 -10 21 3 36 9 9 22 17 30 17 19 0 16 20 -4 27 -38 13 -45 25 -27 44 22
25 61 24 102 -1 l33 -20 -21 -30 c-20 -29 -20 -29 -1 -39 22 -12 51 -14 51 -4
0 3 -7 15 -16 25 -28 30 -2 48 70 48 36 1 68 6 79 14 18 14 18 16 2 40 -11 16
-13 26 -6 26 6 0 11 11 11 25 0 13 8 29 18 34 26 15 85 2 106 -24z m1886 -167
c0 -32 -44 -118 -48 -95 -2 10 -9 16 -15 14 -9 -3 -12 -55 -10 -185 1 -100 -2
-182 -7 -182 -8 0 -13 54 -26 245 -3 44 -7 99 -10 123 -4 23 -3 53 0 67 7 28
31 33 40 9 5 -13 9 -12 28 5 28 27 48 27 48 -1z m1363 -79 c41 -6 81 -19 92
-28 11 -10 28 -21 38 -24 9 -4 17 -13 17 -22 0 -17 -21 -20 -36 -5 -10 10 -54
2 -54 -11 0 -4 5 -11 11 -14 17 -11 -22 -34 -58 -35 -50 0 -132 20 -149 37
-13 13 -13 18 0 38 13 20 13 24 -1 38 -37 36 12 46 140 26z m-6102 -100 c77
-23 83 -29 85 -78 1 -25 -4 -35 -18 -39 -23 -6 -23 -14 2 -30 11 -7 20 -19 20
-26 0 -16 -11 -20 -75 -31 l-40 -7 51 -23 c58 -26 70 -38 51 -53 -14 -12 -353
-10 -400 3 -57 15 -19 60 52 61 25 0 60 7 76 14 17 7 36 12 42 11 8 -1 10 5 6
15 -5 12 -14 15 -41 10 -36 -5 -137 18 -147 34 -8 13 25 41 44 36 9 -3 47 -10
86 -15 76 -11 103 -2 69 23 -15 12 -17 17 -6 27 6 7 12 23 12 35 0 26 24 54
47 54 8 0 46 -9 84 -21z m1818 -84 c12 -12 11 -16 -3 -30 -21 -21 -20 -28 4
-50 18 -16 20 -16 26 -1 3 9 4 23 0 31 -15 40 21 58 59 29 16 -12 18 -18 7
-34 -6 -10 -9 -32 -6 -47 4 -21 0 -33 -15 -47 -21 -19 -22 -19 -44 2 -25 24
-47 29 -47 11 0 -6 -9 -8 -20 -4 -11 3 -20 2 -20 -4 0 -20 -36 -16 -67 7 -38
28 -40 40 -13 75 13 16 16 28 10 32 -14 9 -13 42 3 49 20 9 111 -4 126 -19z
m-963 -100 c105 -19 186 -51 164 -65 -22 -14 -98 -12 -208 6 -105 16 -134 32
-112 58 16 20 45 20 156 1z"/>
</g>
</svg>
