<?xml version="1.0" standalone="no"?>
<!DOCTYPE svg PUBLIC "-//W3C//DTD SVG 20010904//EN"
 "http://www.w3.org/TR/2001/REC-SVG-20010904/DTD/svg10.dtd">
<svg version="1.0" xmlns="http://www.w3.org/2000/svg"
 width="736.000000pt" height="414.000000pt" viewBox="0 0 736.000000 414.000000"
 preserveAspectRatio="xMidYMid meet">
<metadata>
Created by potrace 1.16, written by Peter Selinger 2001-2019
</metadata>
<g transform="translate(0.000000,414.000000) scale(0.100000,-0.100000)"
fill="#000000" stroke="none">
<path d="M0 4116 c0 -18 11 -30 42 -48 23 -13 43 -29 46 -35 6 -21 -40 -15
-65 9 l-23 21 0 -30 c0 -25 5 -32 25 -37 14 -4 25 -14 25 -22 0 -12 -6 -15
-25 -10 l-25 6 0 -370 c0 -301 2 -368 13 -364 7 2 22 -5 33 -17 l19 -22 -32 6
-33 7 0 -90 c0 -53 4 -90 10 -90 6 0 10 -7 10 -15 0 -8 -4 -15 -10 -15 -6 0
-10 -26 -10 -59 0 -59 0 -60 34 -71 29 -9 35 -17 38 -43 6 -61 -27 -98 -60
-65 -9 9 -12 9 -12 -3 0 -8 13 -20 30 -27 19 -9 30 -21 30 -34 0 -17 -5 -20
-30 -16 l-30 5 0 -58 0 -57 42 -14 c41 -13 69 -40 55 -54 -9 -10 -77 22 -77
36 0 5 -4 10 -10 10 -6 0 -10 -93 -10 -259 l0 -260 22 -3 c32 -4 32 -44 1 -41
-23 3 -23 1 -23 -116 0 -128 1 -131 56 -131 26 0 32 -8 36 -55 3 -26 0 -30
-22 -30 -16 0 -28 8 -35 23 -5 12 -15 22 -22 22 -10 0 -13 -61 -13 -277 l0
-278 71 -30 c76 -32 87 -41 71 -57 -8 -8 -27 -3 -67 16 -30 14 -60 26 -65 26
-6 0 -10 -200 -10 -550 l0 -550 526 0 c454 0 527 2 540 15 21 20 103 20 110 0
5 -13 47 -15 294 -15 222 0 289 3 293 13 3 9 9 9 26 0 27 -17 3926 -19 3916
-3 -3 5 -2 17 3 27 7 11 6 23 -1 34 -9 14 -7 22 6 37 16 18 16 21 2 35 -19 19
-19 31 0 47 17 14 100 -2 131 -24 16 -12 16 -14 -6 -36 -22 -22 -20 -30 15
-44 6 -2 5 -12 -3 -25 -7 -12 -10 -31 -7 -42 6 -17 16 -19 86 -19 64 0 79 3
79 15 0 19 29 20 36 1 4 -11 33 -14 135 -15 73 -1 129 2 129 8 0 5 -15 8 -32
7 -27 -1 -34 3 -36 21 -3 17 2 23 15 23 11 0 24 -5 31 -12 6 -6 32 -12 56 -13
27 0 52 -7 64 -18 19 -18 102 -24 102 -8 0 17 34 22 46 7 10 -14 61 -16 408
-16 l396 0 -1 833 c-1 457 -3 823 -6 812 -9 -36 -22 -39 -34 -9 l-11 29 -8
-25 c-5 -14 -11 -37 -14 -52 -9 -40 -34 -35 -52 10 -8 20 -19 46 -24 57 -5 11
-11 29 -13 40 -2 11 -7 -24 -11 -77 -5 -54 -12 -98 -16 -98 -11 0 -30 135 -34
250 -2 58 -7 119 -10 135 -4 17 -2 37 4 45 15 23 29 -5 31 -60 0 -25 6 -63 13
-85 l12 -40 13 58 c11 44 12 63 3 82 -16 35 -15 58 5 100 17 37 40 46 49 20 8
-21 18 -19 29 7 12 26 44 36 56 17 4 -7 3 -21 -2 -31 -17 -32 -6 -258 12 -258
5 0 9 523 9 1190 l0 1190 -158 0 -159 0 4 -107 c3 -114 -9 -118 -22 -7 -10 94
-16 114 -31 114 -11 0 -14 -20 -15 -92 0 -107 -15 -94 -25 23 -4 42 -11 69
-18 69 -9 0 -10 -16 -5 -57 4 -32 7 -96 8 -143 0 -117 -17 -73 -32 82 l-11
118 -583 0 -583 -1 -1 -27 c-1 -15 -2 -42 -3 -61 -1 -42 -26 -56 -26 -14 0 15
-3 45 -6 66 l-7 37 -1271 0 c-699 0 -1265 -4 -1258 -9 7 -4 10 -15 6 -24 -4
-11 0 -19 10 -23 17 -7 22 -44 6 -44 -5 0 -10 5 -10 10 0 6 -11 15 -25 20 -29
11 -33 30 -7 30 16 1 16 1 -1 11 -9 6 -15 14 -12 19 4 6 -421 9 -1047 10 -757
0 -1049 -3 -1038 -11 12 -8 9 -9 -10 -3 -38 11 -197 16 -181 6 24 -17 -5 -21
-34 -6 -42 21 -757 20 -748 -2 3 -9 -1 -14 -11 -14 -9 0 -19 7 -22 15 -10 24
-34 18 -34 -9z m1514 -291 c3 -8 12 -12 20 -9 11 4 13 -7 11 -62 -3 -54 0 -70
13 -80 15 -11 15 -16 -8 -61 -17 -32 -26 -69 -28 -113 -7 -131 -19 -231 -29
-241 -7 -7 -19 8 -39 45 -26 50 -32 56 -60 56 -17 0 -37 7 -44 15 -8 10 -21
13 -38 8 -23 -5 -24 -4 -18 22 4 16 16 41 27 57 25 34 35 89 21 115 -6 11 -7
25 -2 33 5 8 5 20 1 28 -4 7 0 36 10 64 15 46 22 53 68 74 28 13 56 33 63 44
15 24 24 25 32 5z m5366 -225 c0 -5 -11 -12 -24 -16 -13 -3 -35 -17 -48 -32
l-23 -25 38 22 c46 28 66 22 65 -18 -1 -24 -7 -32 -31 -40 -26 -9 -77 -53 -77
-67 0 -11 35 -2 57 16 26 21 53 26 53 12 0 -18 -100 -73 -120 -67 -13 4 -33
-1 -54 -14 -37 -23 -46 -25 -46 -12 0 5 23 24 51 42 47 30 50 35 45 62 -9 42
-11 43 -55 19 -21 -12 -42 -22 -46 -22 -15 0 19 31 56 52 22 12 39 25 39 30 0
10 91 68 108 68 6 0 12 -4 12 -10z m-6296 -448 c-2 -60 -37 -171 -64 -202 -21
-24 -24 -21 -33 34 -7 43 33 176 53 176 5 0 11 12 14 26 11 44 31 22 30 -34z
m848 -325 c57 -1 60 -31 6 -54 -31 -14 -39 -38 -10 -29 9 3 30 8 46 12 26 6
27 5 17 -14 -8 -15 -8 -29 -1 -48 8 -20 7 -31 -4 -43 -17 -20 -24 -54 -31
-150 -3 -41 -8 -78 -11 -82 -11 -18 -35 -8 -52 21 -13 23 -22 28 -40 23 -17
-4 -31 2 -52 22 -16 16 -33 24 -40 20 -17 -11 -2 55 18 78 13 14 13 21 2 41
-7 14 -10 35 -7 48 3 13 12 46 19 74 17 67 40 93 76 86 15 -3 44 -5 64 -5z
m4788 -112 c18 11 11 -43 -11 -80 -22 -37 -21 -66 5 -127 5 -10 -2 -30 -18
-55 -28 -43 -32 -61 -21 -86 4 -11 3 -23 -4 -30 -8 -8 -17 -6 -34 11 -19 19
-20 24 -7 32 13 9 13 11 1 19 -9 6 -22 6 -32 0 -10 -5 -28 -9 -42 -9 -15 0
-28 -9 -36 -24 -7 -13 -23 -28 -35 -34 -13 -6 -28 -29 -38 -58 -9 -27 -24 -68
-32 -91 -12 -32 -13 -54 -7 -90 14 -72 12 -155 -2 -150 -14 4 -16 25 -20 157
-2 94 -10 126 -27 115 -18 -11 -23 45 -6 64 28 31 18 42 -19 21 -43 -24 -45
-24 -45 -5 0 8 9 19 20 25 11 6 20 21 20 33 -1 20 -2 21 -14 5 -19 -26 -26
-22 -26 12 0 23 4 30 16 28 21 -4 55 83 36 90 -32 10 -3 90 54 154 l33 37 21
-26 c11 -14 20 -21 20 -15 0 18 91 62 127 62 21 0 36 6 39 15 4 8 17 15 30 15
13 0 24 6 25 13 0 6 4 2 10 -11 5 -13 13 -20 19 -17z m-4646 -346 c4 -22 4
-44 1 -50 -4 -5 2 -21 13 -37 19 -27 19 -27 -5 -79 -13 -29 -29 -53 -34 -53
-5 0 0 -10 11 -22 18 -19 20 -30 15 -67 -9 -58 -14 -71 -31 -71 -8 0 -14 -7
-14 -15 0 -22 -18 -18 -25 5 -8 24 -21 26 -29 4 -9 -24 -7 -54 4 -54 6 0 10
-4 10 -10 0 -5 -7 -10 -15 -10 -20 0 -19 -20 2 -35 21 -15 11 -45 -16 -45 -22
0 -35 25 -23 47 5 8 5 36 0 61 -11 58 -11 52 -6 192 3 75 10 127 21 150 8 19
16 28 16 19 1 -19 29 -45 38 -35 3 3 7 21 7 40 2 32 34 106 47 106 4 0 9 -18
13 -41z m-676 -58 c10 -21 9 -27 -3 -34 -8 -4 -15 -13 -15 -18 0 -6 5 -7 10
-4 6 3 11 -2 11 -12 4 -64 -18 -93 -72 -93 -43 0 -55 20 -44 70 5 22 1 34 -15
50 l-21 21 26 22 c18 15 40 22 69 22 36 0 45 -4 54 -24z m862 -6 c9 -11 10
-25 3 -54 -6 -21 -7 -45 -2 -52 4 -7 1 -25 -6 -40 -11 -20 -12 -40 -5 -83 12
-74 1 -106 -36 -102 -23 3 -27 8 -29 46 -3 36 1 48 21 67 31 28 31 56 0 77
-27 17 -26 32 7 109 22 51 28 55 47 32z m-945 -255 c3 -5 21 -17 40 -26 47
-22 49 -66 5 -89 -16 -8 -37 -29 -46 -46 -10 -20 -20 -29 -30 -25 -9 3 -20 6
-25 6 -5 0 -9 9 -9 21 0 16 -4 19 -21 14 -18 -6 -20 -4 -14 17 4 12 14 31 22
40 9 10 13 25 9 34 -12 31 52 82 69 54z m5275 -480 c3 -5 11 -5 20 0 10 6 22
2 37 -12 18 -16 26 -19 35 -10 8 8 16 8 32 -1 28 -15 117 -46 136 -47 8 0 26
-9 39 -19 13 -10 32 -16 41 -14 23 6 47 -24 32 -39 -7 -7 -12 -20 -12 -30 0
-27 -17 -21 -24 9 -6 23 -9 25 -22 11 -13 -13 -14 -19 -2 -37 7 -11 18 -21 24
-21 22 0 22 -39 0 -72 -37 -55 -57 -116 -50 -153 5 -28 2 -35 -16 -45 -18 -10
-24 -9 -34 5 -14 20 -56 12 -56 -10 0 -7 -7 -26 -15 -41 -8 -16 -15 -37 -15
-46 0 -25 -16 -22 -25 5 -6 21 -7 21 -17 -8 -5 -16 -9 -55 -8 -87 2 -74 -14
-81 -29 -13 -7 29 -16 55 -21 57 -6 2 -14 25 -19 52 -5 28 -16 55 -24 61 -9 6
-15 20 -14 31 1 12 -5 20 -19 22 -20 3 -22 -3 -29 -80 -4 -46 -9 -86 -11 -90
-2 -3 -13 -4 -24 -1 -22 6 -28 49 -7 56 9 3 9 9 0 28 -6 13 -17 42 -24 64 -6
22 -16 48 -20 58 -6 11 -5 25 1 38 15 26 3 62 -17 54 -49 -18 -70 31 -31 72
12 13 17 23 11 23 -14 0 -24 39 -17 67 4 13 12 23 20 23 13 0 42 55 59 110 4
14 15 30 24 37 17 14 81 9 91 -7z m-993 -234 c-2 -19 -6 -38 -10 -42 -4 -4 7
-13 25 -19 22 -7 33 -17 32 -28 -1 -9 2 -17 7 -17 28 0 -10 -49 -38 -50 -19 0
-15 27 5 35 14 5 11 9 -17 21 -44 19 -65 18 -57 -1 8 -23 -33 -39 -67 -26 -34
13 -35 29 -3 41 23 8 53 48 46 60 -1 3 7 9 18 15 11 5 23 17 25 27 3 10 12 18
20 18 12 0 15 -9 14 -34z m-3720 -837 c27 -10 28 -11 8 -25 -11 -9 -32 -18
-47 -21 -29 -6 -36 -17 -18 -28 6 -4 7 -12 3 -18 -4 -7 -7 -25 -8 -42 0 -22
-5 -31 -20 -33 -33 -4 -52 14 -38 36 8 14 9 22 1 30 -14 14 7 42 31 42 35 1
-23 30 -60 30 -71 0 -93 23 -36 38 40 11 147 5 184 -9z m2323 -130 c0 -6 8 -5
21 2 26 14 91 5 124 -17 23 -15 24 -17 9 -45 -13 -26 -20 -29 -63 -29 -33 0
-56 6 -73 20 -17 13 -28 16 -35 9 -16 -16 -53 11 -53 38 0 33 27 55 51 43 10
-6 19 -15 19 -21z"/>
</g>
</svg>
