<?xml version="1.0" standalone="no"?>
<!DOCTYPE svg PUBLIC "-//W3C//DTD SVG 20010904//EN"
 "http://www.w3.org/TR/2001/REC-SVG-20010904/DTD/svg10.dtd">
<svg version="1.0" xmlns="http://www.w3.org/2000/svg"
 width="736.000000pt" height="414.000000pt" viewBox="0 0 736.000000 414.000000"
 preserveAspectRatio="xMidYMid meet">
<metadata>
Created by potrace 1.16, written by Peter Selinger 2001-2019
</metadata>
<g transform="translate(0.000000,414.000000) scale(0.100000,-0.100000)"
fill="#000000" stroke="none">
<path d="M0 2721 c0 -1167 2 -1420 13 -1424 7 -3 19 4 25 14 10 16 42 27 42
15 0 -18 -22 -56 -33 -56 -30 0 -47 -39 -47 -110 0 -39 2 -70 5 -70 4 0 20 7
37 16 41 21 53 8 39 -43 -8 -30 -19 -43 -46 -56 -35 -17 -35 -17 -35 -82 l0
-64 30 6 c27 5 30 3 30 -21 0 -19 -8 -32 -30 -44 l-30 -17 0 -392 0 -393 353
1 c196 1 337 5 319 9 -42 10 -57 24 -48 45 5 14 16 16 59 12 81 -7 203 -34
238 -51 29 -14 150 -16 1161 -16 1190 0 1179 0 1140 43 -24 27 -2 43 45 31 45
-11 53 -30 19 -46 -19 -8 -23 -14 -14 -20 7 -4 246 -8 530 -8 404 0 517 3 521
13 4 9 7 9 18 -1 18 -17 839 -18 839 -1 0 9 4 9 14 0 9 -8 307 -11 1089 -11
l1077 0 0 349 c0 324 -1 350 -18 354 -16 4 -16 5 1 6 15 1 17 13 17 104 0 61
-4 107 -11 114 -8 8 -8 13 0 17 22 14 10 26 -25 26 -23 0 -33 4 -28 11 3 6 19
9 35 7 l29 -4 0 1578 0 1578 -3680 0 -3680 0 0 -1419z m5154 1127 c46 -14 70
-33 61 -48 -3 -5 -14 -10 -23 -10 -10 0 -25 -12 -34 -28 -14 -24 -14 -30 -2
-46 12 -17 12 -23 0 -41 -9 -14 -11 -27 -5 -37 12 -22 -4 -32 -39 -24 -26 5
-26 5 -4 -6 23 -11 25 -34 4 -32 -7 1 -21 2 -33 3 -17 1 -20 6 -15 26 5 21 1
27 -28 39 -39 16 -54 35 -36 46 7 4 10 12 7 18 -12 18 27 40 68 38 l40 -3 1
43 c1 28 -4 45 -13 48 -16 6 -17 26 -2 26 7 0 30 -5 53 -12z m-340 -24 c4 -12
9 -12 25 -2 15 9 24 8 45 -5 26 -18 35 -50 16 -62 -8 -5 -8 -11 0 -19 5 -7 7
-27 4 -45 -8 -36 -15 -37 -120 -17 -79 15 -165 44 -176 60 -21 30 -5 31 87 7
22 -6 47 -8 56 -5 22 6 31 42 16 64 -8 14 -8 22 2 34 14 17 37 12 45 -10z
m-158 -810 c16 -4 24 -17 29 -47 5 -29 9 -36 13 -22 8 37 23 46 61 39 20 -4
40 -10 46 -15 12 -11 48 -12 61 0 5 4 24 4 44 -2 35 -11 35 -11 8 -15 -32 -4
-34 -9 -12 -40 8 -12 11 -22 6 -22 -9 0 -22 -28 -26 -54 -2 -19 -25 -16 -40 5
-11 17 -18 20 -28 11 -11 -8 -31 -5 -83 14 -84 31 -90 34 -75 44 9 6 6 11 -11
20 -17 10 -24 10 -27 1 -5 -14 -32 -15 -32 -1 0 6 5 10 10 10 6 0 10 7 10 15
0 8 8 15 17 15 14 0 13 3 -5 16 -36 25 -15 41 34 28z m-3144 -494 c40 -11 82
-20 94 -20 12 0 32 -9 46 -19 13 -11 39 -21 58 -23 36 -3 57 -26 47 -52 -6
-15 -10 -15 -47 6 -32 19 -43 21 -59 11 -21 -13 -156 -3 -203 15 -30 12 -48
39 -41 62 15 49 7 47 105 20z m2576 -122 c-2 -9 13 -14 47 -15 112 -4 191 -25
179 -45 -4 -5 -26 -18 -49 -28 -35 -15 -63 -18 -144 -15 -64 2 -101 -1 -101
-7 0 -15 -77 -1 -112 20 l-28 17 22 18 c33 25 86 47 117 47 14 0 33 5 41 10
21 13 30 12 28 -2z m-3101 -401 c15 -14 15 -18 -1 -42 -10 -15 -16 -28 -14
-30 2 -1 13 -8 26 -14 30 -16 28 -36 -8 -63 -31 -22 -38 -46 -20 -64 7 -7 4
-16 -10 -29 -16 -14 -23 -16 -32 -7 -7 7 -29 12 -50 12 -45 0 -59 21 -34 49
20 22 20 31 -1 47 -21 16 -33 17 -52 5 -12 -8 -12 -12 3 -26 16 -16 16 -18 0
-36 -21 -23 -32 -24 -56 -2 -25 23 -22 41 8 49 14 4 22 9 17 13 -35 25 -30 84
8 96 23 8 59 -11 59 -30 0 -19 28 -8 33 13 2 10 -4 25 -12 35 -15 17 -14 20 6
36 17 14 31 17 68 11 25 -4 53 -14 62 -23z m328 -97 c17 -19 17 -21 1 -39 -17
-19 -17 -21 6 -53 12 -18 24 -35 25 -36 1 -2 16 1 35 8 28 10 40 9 81 -9 50
-22 56 -31 32 -51 -19 -16 -87 -4 -119 21 -30 24 -35 24 -63 -3 -21 -20 -22
-23 -7 -40 33 -36 -26 -66 -61 -31 -16 16 -16 18 5 35 21 17 22 19 5 44 -16
25 -16 28 3 54 19 25 19 29 5 58 -12 26 -13 35 -3 47 17 20 33 19 55 -5z
m2058 -295 c-4 -26 -2 -35 8 -35 8 0 5 -6 -7 -13 -79 -46 -102 -60 -129 -77
-77 -50 -104 -52 -105 -8 0 18 58 68 78 68 7 0 17 10 24 21 10 16 117 79 135
79 1 0 -1 -16 -4 -35z m-2564 -580 c71 -15 107 -39 81 -55 -30 -19 -172 -5
-227 22 -48 24 -13 61 47 52 19 -4 64 -12 99 -19z m2904 -49 c12 -17 16 -17
43 -3 46 23 66 25 70 3 5 -34 -20 -68 -70 -93 -28 -14 -66 -39 -84 -54 -18
-16 -43 -29 -56 -29 -13 0 -27 -7 -30 -15 -3 -9 -22 -23 -42 -31 -20 -8 -46
-27 -59 -42 -18 -21 -26 -24 -37 -15 -16 14 -32 6 -41 -19 -9 -24 -40 -24 -33
0 3 10 7 37 8 60 1 24 5 45 10 48 5 3 6 13 3 23 -3 11 8 33 31 59 27 32 45 44
76 48 22 4 42 13 45 20 3 8 13 14 22 14 9 0 32 11 50 24 38 28 74 29 94 2z
m1506 -96 c45 0 53 -4 96 -46 36 -37 43 -49 34 -60 -15 -18 -111 -18 -164 1
-22 8 -59 15 -81 15 -35 0 -47 6 -73 35 -17 20 -31 39 -31 43 0 13 64 41 100
44 23 2 41 -3 53 -14 11 -12 33 -18 66 -18z m-2592 -344 c138 -28 175 -52 119
-77 -18 -8 -43 -6 -107 9 -46 12 -100 24 -119 27 -49 10 -62 22 -49 46 12 24
18 23 156 -5z m2066 -66 c32 -6 67 -14 77 -20 10 -5 27 -10 37 -10 10 0 29 -7
42 -16 36 -25 12 -38 -46 -25 -28 5 -62 7 -77 3 l-27 -7 31 -18 c36 -22 37
-30 7 -44 -28 -13 -143 10 -166 32 -25 24 2 44 51 37 51 -6 45 11 -10 28 -47
16 -56 24 -48 45 5 13 14 16 39 11 17 -4 58 -11 90 -16z m-1703 -120 c20 -11
26 -80 8 -91 -6 -4 -5 -14 3 -27 10 -17 10 -23 0 -36 -17 -20 -30 -20 -52 0
-15 14 -21 14 -45 1 -23 -12 -34 -12 -72 -1 -56 17 -58 20 -42 39 10 12 24 14
59 9 25 -4 56 -10 68 -15 27 -10 51 14 34 34 -15 19 -3 97 15 97 3 0 14 -4 24
-10z m-295 -63 c50 -12 70 -36 47 -59 -11 -11 -119 6 -214 34 -67 20 -84 38
-53 56 15 8 116 -6 220 -31z m-1897 -27 c129 -23 188 -46 171 -67 -6 -7 -30
-13 -53 -13 -63 0 -253 35 -271 50 -14 12 -14 15 1 31 21 23 16 23 152 -1z"/>
</g>
</svg>
