<?xml version="1.0" standalone="no"?>
<!DOCTYPE svg PUBLIC "-//W3C//DTD SVG 20010904//EN"
 "http://www.w3.org/TR/2001/REC-SVG-20010904/DTD/svg10.dtd">
<svg version="1.0" xmlns="http://www.w3.org/2000/svg"
 width="736.000000pt" height="414.000000pt" viewBox="0 0 736.000000 414.000000"
 preserveAspectRatio="xMidYMid meet">
<metadata>
Created by potrace 1.16, written by Peter Selinger 2001-2019
</metadata>
<g transform="translate(0.000000,414.000000) scale(0.100000,-0.100000)"
fill="#000000" stroke="none">
<path d="M0 2070 l0 -2070 1101 0 c777 0 1106 3 1121 11 14 8 23 8 31 0 15
-15 781 -16 772 -1 -3 6 3 10 14 10 11 0 23 -5 26 -10 9 -14 577 -14 592 1 8
8 13 8 17 0 9 -14 196 -15 196 -1 0 6 9 10 20 10 11 0 20 -4 20 -10 0 -16 407
-13 414 3 5 9 7 9 12 0 7 -16 194 -18 194 -3 0 6 7 10 16 10 8 0 12 -5 9 -10
-4 -7 278 -10 839 -10 l846 0 0 24 c0 13 -6 29 -14 35 -21 17 -27 51 -10 58 8
3 14 14 14 24 0 21 44 44 66 35 7 -3 14 -15 16 -28 2 -13 10 -23 18 -23 10 0
14 8 12 22 -6 40 22 25 36 -18 9 -29 10 -45 2 -54 -6 -7 -9 -21 -8 -31 2 -11
-1 -19 -7 -19 -5 0 -9 6 -8 14 1 8 -7 25 -17 38 -15 19 -19 20 -24 8 -3 -9
-20 -22 -38 -30 -28 -12 -29 -14 -10 -15 12 0 22 -5 22 -10 0 -6 -10 -15 -22
-19 -15 -6 55 -9 187 -10 l210 0 0 57 c0 51 2 57 23 60 17 3 22 -2 22 -17 0
-22 19 -30 21 -8 1 6 2 18 3 26 0 8 7 16 14 19 7 2 12 -2 11 -9 -1 -8 1 -26 5
-42 9 -31 -9 -63 -28 -49 -7 5 -20 -1 -33 -15 l-22 -23 39 0 c21 0 41 4 45 10
4 6 15 6 31 0 14 -6 52 -10 84 -10 l59 0 -3 34 c-2 18 -6 38 -10 44 -7 11 11
28 21 19 2 -3 6 -25 7 -49 l2 -43 202 -3 202 -2 0 139 c0 132 -1 139 -22 154
l-23 16 23 0 c22 1 22 3 22 126 0 142 8 131 -99 139 -36 3 -61 0 -74 -9 -10
-7 -26 -11 -33 -8 -8 3 -21 0 -28 -6 -10 -9 -16 -9 -21 -1 -11 17 4 60 20 60
9 0 23 4 33 9 35 18 81 28 89 21 4 -4 32 -10 61 -14 l52 -7 0 841 0 840 -21 0
c-11 0 -18 4 -14 10 3 5 12 7 20 3 12 -4 15 7 15 61 0 64 -1 66 -25 66 -14 0
-25 5 -25 11 0 7 10 9 24 5 l25 -6 0 260 c0 161 -3 260 -9 260 -6 0 -10 5 -10
11 0 5 4 7 10 4 7 -4 10 190 10 574 l0 581 -332 0 c-303 0 -330 -1 -312 -16
18 -15 18 -15 -11 -9 -16 4 -31 11 -33 16 -6 15 -249 12 -256 -3 -5 -10 -7
-10 -12 0 -7 14 -64 17 -64 2 0 -5 -10 -14 -21 -21 -20 -10 -21 -9 -16 10 5
20 1 21 -54 21 -32 0 -59 -4 -59 -8 0 -5 -11 -14 -25 -20 -20 -9 -23 -9 -18 3
3 8 10 15 16 15 6 0 8 2 5 5 -3 3 -21 -1 -41 -10 -32 -13 -38 -13 -51 0 -13
13 -375 15 -3045 15 l-3031 0 0 -2070z m6091 1098 c0 -10 2 -10 6 0 8 20 33
14 33 -8 0 -20 28 -28 44 -13 9 9 88 4 101 -7 6 -4 28 -13 50 -20 67 -21 75
-34 24 -40 -36 -4 -45 -9 -47 -27 -3 -19 -8 -21 -35 -16 -18 3 -33 10 -35 15
-5 13 -22 10 -19 -4 1 -6 -10 -16 -25 -21 -32 -12 -62 6 -53 33 7 23 -33 34
-69 20 -44 -16 -73 9 -44 38 9 9 9 12 -1 12 -7 0 -9 5 -5 11 3 6 17 8 30 5 19
-5 24 -2 24 14 0 21 19 29 21 8z m-100 -1410 c1 -18 0 -37 -1 -43 -1 -5 -2
-22 -2 -37 0 -16 -4 -28 -9 -28 -5 0 -9 9 -9 20 0 11 -5 20 -11 20 -6 0 -10
-10 -9 -22 4 -40 0 -47 -27 -61 -56 -29 -73 -30 -73 -8 0 12 -7 21 -15 21 -8
0 -15 -5 -15 -11 0 -5 -4 -7 -10 -4 -5 3 -8 23 -7 44 2 29 11 45 39 69 36 32
108 69 108 55 0 -4 5 -2 12 5 20 20 28 14 29 -20z m-2097 -741 c16 -11 15 -14
-13 -35 -35 -26 -41 -52 -11 -52 14 0 20 -7 20 -21 0 -16 -4 -19 -20 -14 -16
5 -20 2 -20 -19 0 -20 -5 -26 -22 -27 -13 0 -17 -3 -10 -6 21 -8 13 -23 -14
-23 -21 0 -25 4 -21 20 4 15 -3 22 -31 31 -30 10 -33 13 -20 23 9 7 16 21 15
32 -2 14 5 20 26 22 31 4 63 52 39 60 -6 2 -12 8 -12 13 0 14 74 11 94 -4z
m-229 -38 c5 -5 17 -9 26 -9 14 0 17 -10 16 -60 -1 -33 -5 -60 -9 -60 -5 0 -8
10 -9 23 -2 66 -9 84 -29 72 -8 -5 -8 -11 -1 -19 6 -7 8 -16 4 -20 -4 -4 -8
-15 -8 -24 0 -15 -12 -17 -90 -17 -101 1 -148 10 -142 28 2 8 20 11 50 9 25
-2 55 -1 65 2 23 8 36 45 21 63 -19 22 0 33 49 26 26 -3 51 -10 57 -14z m-210
-691 c0 -26 12 -32 20 -9 7 25 8 25 76 9 60 -14 127 -68 84 -68 -8 0 -19 -9
-25 -21 -9 -16 -14 -18 -26 -9 -7 7 -20 10 -28 7 -20 -8 -116 23 -123 39 -3 8
-12 14 -20 14 -8 0 -11 -4 -8 -10 3 -5 1 -10 -5 -10 -7 0 -9 7 -6 16 3 9 6 18
6 20 0 2 8 4 18 4 16 1 16 1 0 14 -21 15 -12 28 17 24 11 -2 20 -11 20 -20z"/>
</g>
</svg>
