<?xml version="1.0" standalone="no"?>
<!DOCTYPE svg PUBLIC "-//W3C//DTD SVG 20010904//EN"
 "http://www.w3.org/TR/2001/REC-SVG-20010904/DTD/svg10.dtd">
<svg version="1.0" xmlns="http://www.w3.org/2000/svg"
 width="736.000000pt" height="414.000000pt" viewBox="0 0 736.000000 414.000000"
 preserveAspectRatio="xMidYMid meet">
<metadata>
Created by potrace 1.16, written by Peter Selinger 2001-2019
</metadata>
<g transform="translate(0.000000,414.000000) scale(0.100000,-0.100000)"
fill="#000000" stroke="none">
<path d="M20 4124 c0 -8 -4 -12 -10 -9 -6 4 -10 -436 -10 -1251 0 -1257 0
-1257 20 -1239 20 18 20 17 20 -14 0 -24 -5 -34 -20 -38 -20 -5 -20 -14 -20
-789 l0 -784 249 0 c143 0 252 4 256 9 3 6 18 6 38 0 48 -14 560 -12 574 2 9
9 20 9 44 0 48 -17 2942 -15 2969 1 15 10 22 10 32 0 9 -9 224 -12 954 -12
856 0 942 1 948 16 6 15 8 15 31 0 22 -14 91 -16 645 -16 l620 0 0 315 0 314
-40 12 c-52 16 -52 33 0 24 l40 -7 0 291 0 291 -24 0 c-13 0 -30 7 -37 16 -12
15 -10 16 24 12 l37 -4 0 186 0 186 -27 11 -28 12 28 -6 27 -5 -2 538 -3 538
-23 6 c-29 6 -25 26 6 22 20 -3 22 1 22 52 0 48 -3 54 -22 59 -13 4 -32 13
-43 22 -19 16 -18 16 22 11 l43 -6 0 625 0 625 -326 0 c-217 0 -332 -4 -346
-11 -15 -8 -19 -8 -14 0 5 8 -63 11 -242 11 -213 0 -251 -2 -256 -15 -3 -8
-10 -15 -17 -15 -6 0 -9 7 -5 15 4 12 -6 15 -62 15 -48 0 -63 -3 -52 -10 13
-9 11 -13 -10 -30 -34 -27 -40 -25 -33 10 l6 30 -994 0 -994 0 -38 -31 c-20
-17 -43 -28 -50 -26 -7 3 -5 6 5 6 25 1 32 19 14 36 -13 13 -200 15 -1530 15
-1224 0 -1516 -2 -1516 -13 0 -7 7 -23 16 -35 15 -22 15 -25 -5 -46 -19 -20
-29 -23 -69 -18 -26 2 -54 11 -63 18 -8 8 -25 14 -37 14 -16 0 -22 6 -22 21 0
11 -5 29 -10 40 -10 18 -25 19 -350 19 -301 0 -340 -2 -340 -16z m750 -149 c7
-9 19 -14 27 -11 8 3 18 -5 25 -19 13 -28 33 -33 42 -10 8 21 23 19 36 -4 7
-14 7 -28 -2 -47 -11 -23 -10 -28 7 -40 10 -8 20 -24 22 -36 5 -31 8 -32 31
-8 24 26 42 19 42 -14 0 -28 -22 -49 -43 -40 -11 4 -22 -7 -38 -38 -12 -24
-23 -51 -24 -61 -1 -10 -11 -30 -22 -45 -10 -15 -22 -35 -26 -46 -5 -13 -13
-17 -30 -12 -19 6 -60 15 -93 20 -23 4 -44 29 -44 51 0 13 -7 25 -15 29 -37
14 5 168 45 165 32 -3 40 2 40 22 0 22 -24 70 -50 102 -13 17 -13 21 9 38 28
23 44 24 61 4z m5810 -360 c0 -14 -10 -31 -22 -40 -61 -43 -100 -65 -114 -65
-8 0 -17 -7 -21 -16 -6 -16 -7 -16 -18 0 -11 15 -13 14 -19 -9 -4 -16 -20 -32
-41 -42 -40 -19 -50 -14 -41 22 5 19 21 33 52 48 77 37 83 41 95 64 7 12 17
20 22 16 6 -3 15 0 21 8 12 16 54 37 74 38 6 1 12 -10 12 -24z m-5425 -255 c3
-11 3 -40 -1 -66 -4 -30 -2 -54 6 -69 10 -20 11 -27 1 -39 -8 -10 -11 -29 -6
-54 4 -28 2 -42 -8 -51 -12 -9 -16 -8 -21 5 -5 12 -10 14 -17 7 -14 -14 -2
-53 17 -53 20 0 29 -27 14 -45 -10 -12 -10 -21 0 -45 10 -24 10 -37 1 -56 -6
-14 -11 -37 -12 -52 0 -15 -8 -44 -18 -66 l-17 -38 -28 36 c-27 36 -27 37 -12
79 21 61 29 127 15 143 -8 10 -7 21 4 42 10 20 11 35 5 46 -7 12 -6 28 2 47 9
21 10 37 3 52 -6 12 -7 31 -3 42 4 11 5 26 2 33 -2 7 4 32 14 55 30 70 47 84
59 47z m280 -296 c30 -8 45 -48 33 -90 -5 -20 -7 -42 -4 -50 3 -8 1 -25 -6
-38 -9 -21 -14 -23 -32 -14 -11 6 -28 14 -36 18 -9 5 -14 18 -12 36 2 16 3 45
3 64 0 76 8 87 54 74z m-1280 -766 c-9 -35 -28 -86 -41 -114 -28 -60 -33 -104
-9 -84 25 21 19 -9 -11 -51 -39 -57 -70 -33 -45 34 7 17 5 37 -4 63 l-14 39
-1 -37 c0 -20 -4 -40 -10 -43 -5 -3 -9 10 -9 32 1 55 8 73 25 66 10 -3 14 2
14 19 0 26 46 96 51 79 2 -6 15 -8 27 -4 19 5 23 11 19 31 -6 33 2 57 16 43 7
-7 4 -30 -8 -73z m1023 -363 c2 -10 -1 -28 -8 -40 -9 -17 -9 -28 -1 -44 7 -12
9 -26 5 -32 -4 -6 -8 -67 -10 -134 l-3 -123 47 -15 c40 -12 48 -13 55 -1 4 8
17 14 27 14 15 0 20 -7 20 -25 0 -33 -28 -87 -41 -80 -5 4 -14 -7 -20 -24 -11
-32 -29 -42 -29 -16 0 20 -14 19 -31 -1 -10 -12 -10 -22 -2 -43 7 -21 7 -34
-3 -54 -9 -17 -12 -41 -7 -73 6 -43 7 -45 16 -23 5 13 11 48 13 78 5 60 12 80
24 61 8 -13 4 -167 -6 -283 -8 -82 -29 -87 -30 -6 -1 87 -2 95 -16 81 -7 -7
-15 -36 -18 -65 -5 -50 -6 -52 -35 -51 -16 0 -34 -4 -38 -10 -6 -8 -10 -8 -13
0 -12 29 -32 47 -47 41 -22 -8 -50 -76 -38 -91 24 -29 6 -101 -23 -90 -8 3
-17 1 -21 -5 -3 -6 -15 -11 -26 -11 -16 0 -18 5 -13 28 3 15 15 35 26 45 20
17 20 17 -6 57 -25 38 -26 43 -14 83 11 37 16 103 17 217 0 19 -5 38 -12 42
-9 5 -7 16 7 43 16 29 17 39 7 58 -10 19 -8 30 9 70 22 49 29 54 47 36 8 -8
13 -5 18 11 9 27 39 22 43 -8 4 -26 37 -30 46 -6 3 9 13 14 20 11 26 -10 29
48 4 79 -4 6 -6 18 -3 25 7 21 27 209 25 247 0 18 2 37 6 43 9 15 28 5 32 -16z
m2656 -53 c5 -14 18 -17 82 -17 41 0 78 -3 80 -7 9 -13 -44 -58 -68 -58 -13 0
-36 7 -52 15 -36 19 -73 13 -135 -21 -53 -29 -61 -30 -61 -3 0 12 8 23 20 26
11 3 20 11 20 19 0 7 21 25 48 38 57 30 59 31 66 8z m-1204 -287 c7 -8 25 -15
41 -15 16 0 37 -9 49 -22 17 -19 24 -21 40 -10 24 15 57 16 62 2 2 -6 31 -12
66 -13 35 -1 62 -6 62 -12 0 -5 8 3 18 18 33 53 102 44 97 -12 -2 -37 -21 -61
-46 -61 -10 0 -21 -4 -24 -10 -3 -5 -14 -10 -24 -10 -31 0 -43 -23 -25 -49 9
-12 13 -28 10 -36 -7 -19 -40 -19 -56 0 -10 12 -15 12 -36 -2 -19 -12 -22 -19
-13 -29 9 -11 8 -14 -5 -14 -9 0 -28 -7 -41 -16 -22 -15 -32 -15 -117 1 -115
22 -144 43 -126 93 9 23 9 35 1 43 -17 17 16 69 46 69 16 0 22 -4 17 -15 -4
-11 2 -15 27 -15 24 0 28 3 17 10 -8 5 -11 12 -7 16 13 13 -15 34 -47 34 -48
0 -62 13 -48 44 13 29 43 34 62 11z m-127 -76 c39 -11 43 -18 26 -51 -8 -15
-8 -27 2 -45 11 -21 10 -26 -7 -42 -19 -19 -21 -19 -87 3 -37 13 -72 27 -78
33 -19 19 1 33 47 33 24 0 44 4 44 10 0 5 -21 18 -46 29 -25 11 -43 25 -39 31
8 13 89 13 138 -1z m4569 -63 c32 -2 74 -10 94 -16 l37 -13 -28 -14 c-42 -22
-133 -32 -188 -21 -35 7 -52 7 -62 -2 -15 -12 -64 -6 -99 12 -17 9 -16 11 13
29 36 22 115 39 151 33 14 -2 51 -6 82 -8z m-1260 -196 c29 -6 71 -19 93 -30
22 -10 48 -21 58 -24 18 -6 34 -33 24 -42 -3 -3 -17 2 -30 11 -20 13 -30 14
-46 6 -23 -13 -156 3 -178 20 -7 6 -13 24 -13 40 0 33 9 35 92 19z m-2820
-181 c98 -22 125 -37 115 -63 -8 -21 -40 -20 -161 3 -101 20 -133 37 -123 65
9 22 56 20 169 -5z m2485 -307 c10 -10 28 -16 41 -14 17 3 22 -2 22 -17 0 -14
-6 -21 -20 -21 -11 0 -20 5 -20 10 0 13 -27 13 -35 0 -3 -5 22 -27 55 -48 52
-33 59 -40 46 -51 -16 -14 -56 -6 -56 10 0 6 -13 2 -30 -8 -35 -20 -37 -29 -9
-36 18 -5 19 -9 9 -27 -8 -15 -17 -19 -28 -15 -9 4 -28 8 -41 10 -31 3 -44 25
-26 45 19 21 2 40 -37 40 -36 0 -51 27 -31 57 18 27 35 29 53 8 10 -12 16 -13
27 -3 12 10 11 14 -8 29 -27 20 -20 46 13 51 32 5 53 -1 75 -20z m-1127 -222
c129 -28 190 -49 190 -65 0 -8 -4 -16 -9 -19 -10 -7 -157 18 -191 33 -14 5
-46 13 -72 16 -47 6 -75 26 -63 45 9 15 39 13 145 -10z"/>
</g>
</svg>
