<?xml version="1.0" standalone="no"?>
<!DOCTYPE svg PUBLIC "-//W3C//DTD SVG 20010904//EN"
 "http://www.w3.org/TR/2001/REC-SVG-20010904/DTD/svg10.dtd">
<svg version="1.0" xmlns="http://www.w3.org/2000/svg"
 width="736.000000pt" height="414.000000pt" viewBox="0 0 736.000000 414.000000"
 preserveAspectRatio="xMidYMid meet">
<metadata>
Created by potrace 1.16, written by Peter Selinger 2001-2019
</metadata>
<g transform="translate(0.000000,414.000000) scale(0.100000,-0.100000)"
fill="#000000" stroke="none">
<path d="M1 3443 c1 -446 5 -702 11 -710 6 -8 7 -26 2 -45 -4 -18 -9 -630 -11
-1361 l-3 -1327 3680 0 3680 0 0 1925 c0 1491 -3 1925 -12 1925 -9 0 -9 3 0
12 8 8 12 55 12 145 l0 133 -44 0 c-26 0 -48 -6 -56 -15 -16 -19 -34 -19 -26
0 5 13 -101 15 -914 15 l-919 0 -3 -22 c-2 -14 -17 -30 -38 -42 -37 -19 -76
-63 -66 -73 3 -3 23 6 44 21 43 29 62 33 62 11 0 -8 -6 -15 -13 -15 -7 0 -29
-14 -50 -31 -25 -21 -43 -28 -57 -24 -13 4 -31 -3 -54 -20 -20 -15 -37 -22
-40 -16 -4 6 16 27 43 48 48 37 57 54 45 87 -8 21 -19 20 -54 -6 -16 -12 -33
-18 -37 -14 -5 5 3 16 17 25 14 9 38 28 55 43 l30 27 -33 1 c-18 0 -42 -6 -53
-12 -17 -10 -23 -10 -26 0 -4 9 -81 12 -343 12 -261 0 -339 -3 -343 -12 -4
-10 -6 -10 -6 0 -1 17 -2107 18 -2128 1 -9 -8 -13 -8 -13 0 0 8 -312 11 -1171
11 l-1170 0 2 -697z m219 -698 c9 -11 9 -22 0 -49 -6 -19 -8 -45 -5 -59 4 -15
1 -30 -8 -39 -12 -12 -14 -33 -11 -94 6 -85 -4 -116 -29 -96 -8 7 -22 10 -31
6 -19 -7 -21 7 -4 24 9 9 9 15 0 24 -17 17 -15 23 18 60 36 39 38 61 6 81 -21
14 -22 19 -12 51 6 20 14 36 18 36 5 0 8 7 8 16 0 20 18 54 29 54 5 0 14 -7
21 -15z m6039 -65 c32 -16 41 -17 50 -6 19 23 184 -13 203 -44 7 -11 19 -15
34 -12 32 6 74 -23 74 -51 0 -50 -46 -62 -86 -22 -14 14 -30 23 -35 20 -5 -4
-44 1 -86 11 -56 12 -85 25 -104 43 -15 15 -32 25 -38 23 -18 -6 -71 19 -71
33 0 11 9 25 17 25 2 0 21 -9 42 -20z m-472 -112 c-3 -13 -10 -40 -15 -60 -6
-21 -6 -55 -1 -80 4 -24 8 -64 9 -90 0 -26 5 -50 10 -53 13 -8 13 -102 1 -110
-5 -3 -13 -19 -16 -36 -8 -34 -21 -28 -27 11 -5 29 -11 19 -28 -47 -6 -24 -17
-43 -24 -43 -7 0 -19 19 -26 43 -7 23 -17 46 -21 51 -11 13 -29 -38 -29 -82 0
-20 -4 -43 -9 -50 -14 -23 -31 132 -30 276 0 74 -2 136 -4 139 -3 2 0 19 5 36
10 27 12 29 19 11 4 -10 8 -46 8 -79 1 -72 12 -96 28 -63 19 39 21 66 8 86
-14 19 -9 57 14 115 12 31 35 36 46 10 6 -16 9 -14 21 10 10 19 22 27 40 27
22 0 25 -4 21 -22z m-513 -467 c4 -86 9 -189 12 -230 5 -85 -4 -153 -17 -128
-11 19 -32 514 -23 529 15 23 22 -22 28 -171z m-1257 -455 c-2 -19 -6 -38 -10
-42 -4 -4 7 -13 25 -19 22 -7 33 -17 32 -28 -1 -9 2 -17 7 -17 5 0 9 -7 9 -15
0 -8 -7 -15 -15 -15 -8 0 -15 -4 -15 -10 0 -5 -7 -10 -15 -10 -21 0 -19 26 3
35 14 6 10 10 -18 20 -46 18 -63 18 -57 1 10 -24 -36 -40 -77 -26 -20 6 -36
15 -36 20 0 4 16 18 36 29 22 13 34 27 31 35 -7 17 23 46 46 46 9 0 17 7 17
15 0 8 9 15 19 15 16 0 19 -6 18 -34z m-2102 -836 c13 -14 22 -17 29 -10 23
23 142 1 162 -31 3 -5 -3 -22 -13 -39 -16 -28 -22 -30 -74 -30 -43 0 -60 5
-74 20 -12 13 -25 18 -40 14 -28 -7 -65 11 -65 31 0 27 23 65 40 65 9 0 25 -9
35 -20z m1943 -129 c24 -5 51 -16 60 -25 14 -14 14 -17 -3 -36 -18 -19 -18
-21 1 -41 15 -17 16 -23 5 -40 -9 -16 -9 -24 0 -35 9 -11 8 -18 -6 -34 -15
-17 -26 -19 -74 -13 -56 6 -100 28 -101 50 0 6 6 13 13 16 9 3 9 9 -1 27 -11
19 -11 25 2 39 20 22 20 30 0 53 -14 14 -14 20 -4 33 14 17 43 18 108 6z"/>
</g>
</svg>
