<?xml version="1.0" standalone="no"?>
<!DOCTYPE svg PUBLIC "-//W3C//DTD SVG 20010904//EN"
 "http://www.w3.org/TR/2001/REC-SVG-20010904/DTD/svg10.dtd">
<svg version="1.0" xmlns="http://www.w3.org/2000/svg"
 width="736.000000pt" height="414.000000pt" viewBox="0 0 736.000000 414.000000"
 preserveAspectRatio="xMidYMid meet">
<metadata>
Created by potrace 1.16, written by Peter Selinger 2001-2019
</metadata>
<g transform="translate(0.000000,414.000000) scale(0.100000,-0.100000)"
fill="#000000" stroke="none">
<path d="M0 3464 c0 -581 2 -675 14 -665 10 8 16 9 21 1 9 -15 -3 -30 -20 -23
-13 4 -15 -143 -15 -1190 l0 -1196 28 -3 c15 -2 28 -10 28 -18 1 -8 2 -21 3
-27 1 -18 21 -16 21 1 0 28 23 34 81 22 59 -12 89 -29 89 -53 0 -7 -7 -16 -15
-19 -8 -4 -15 -12 -15 -20 0 -19 -17 -18 -29 3 -7 13 -12 14 -23 6 -9 -8 -19
-9 -28 -3 -8 6 -29 10 -46 10 -30 0 -60 20 -48 32 2 3 -7 8 -21 10 l-25 5 0
-168 0 -169 1410 0 c1366 0 1410 1 1419 19 6 10 8 21 4 24 -8 9 17 37 33 37 8
0 14 -11 15 -27 0 -16 3 -22 6 -13 3 8 12 19 20 23 8 5 11 16 8 27 -10 30 28
45 67 25 17 -8 39 -13 49 -10 26 9 37 -16 40 -87 0 -16 15 -18 167 -18 112 0
162 4 152 10 -13 8 -13 10 2 10 9 0 20 -4 23 -10 4 -7 419 -10 1212 -10 664 0
1203 3 1200 7 -13 12 16 33 45 33 35 0 71 -17 63 -31 -4 -5 77 -9 214 -9 166
0 220 3 224 13 4 9 7 9 18 -1 9 -9 66 -12 210 -12 174 0 203 2 243 20 27 11
48 15 51 9 4 -5 -4 -13 -17 -18 -17 -7 -2 -10 60 -10 66 -1 82 2 82 14 0 19
19 19 26 0 5 -11 22 -15 65 -15 52 0 59 2 59 20 0 11 7 20 15 20 8 0 15 -9 15
-20 0 -11 7 -20 15 -20 8 0 15 7 15 15 0 19 19 19 26 0 4 -11 21 -15 55 -15
l49 0 0 371 0 371 -30 -7 c-39 -9 -39 9 0 25 19 8 30 20 30 32 0 15 -4 18 -17
13 -47 -19 -55 -18 -51 6 2 16 12 25 36 31 l32 9 0 323 c0 250 -3 325 -12 329
-10 4 -10 6 0 6 10 1 12 128 12 618 -1 571 -2 617 -18 630 -16 14 -16 14 0 9
16 -5 17 11 17 209 0 187 -2 215 -15 215 -9 0 -14 6 -11 13 2 6 10 11 16 9 16
-3 15 150 -1 167 -10 11 -10 14 0 18 17 6 15 23 -3 23 -8 0 -15 7 -15 15 0 8
7 15 15 15 13 0 15 45 15 345 l0 345 -851 0 c-763 0 -853 -2 -863 -16 -8 -11
-20 -13 -39 -9 -15 4 -24 11 -21 16 3 5 -10 8 -28 8 -23 -1 -26 -3 -10 -6 25
-5 29 -21 7 -29 -19 -8 -65 3 -65 15 0 5 8 11 18 14 9 2 -437 4 -993 5 -555 0
-1004 -2 -997 -4 6 -3 12 -12 12 -19 0 -10 -7 -11 -35 -2 -19 6 -35 14 -35 19
0 4 -141 8 -312 8 -227 0 -309 -3 -298 -11 12 -9 11 -9 -5 -2 -11 4 -134 9
-274 11 -198 2 -256 0 -263 -10 -8 -10 -11 -10 -15 0 -3 9 -71 12 -287 12
l-283 0 -11 -25 c-6 -14 -18 -25 -27 -25 -18 0 -19 5 -5 31 11 19 -2 19 -835
19 l-845 0 0 -676z m6011 256 c13 0 11 -34 -3 -48 -14 -14 -2 -29 27 -34 15
-2 20 3 20 20 1 23 22 45 37 36 4 -3 8 0 8 6 0 7 8 9 23 4 33 -10 34 -14 7
-35 -17 -14 -21 -22 -12 -26 21 -8 72 -54 72 -65 0 -5 -14 1 -31 13 -29 20
-33 21 -62 7 -34 -16 -84 -9 -79 10 1 7 -2 12 -8 12 -5 0 -10 -4 -10 -8 0 -5
-17 -13 -37 -19 l-38 -10 30 -12 c23 -10 26 -14 15 -21 -8 -6 -29 -10 -47 -10
-59 0 -84 22 -41 36 21 6 21 7 3 20 -15 12 -17 18 -7 39 6 14 16 25 22 25 5 0
9 10 7 22 -1 17 3 23 21 24 13 1 29 7 35 13 6 6 18 9 25 6 8 -3 18 -5 23 -5z
m49 -222 l25 -10 -34 -18 -35 -17 36 -13 c38 -14 65 -50 54 -69 -11 -17 -37
-13 -42 7 -4 13 -18 18 -66 20 -34 1 -67 7 -75 13 -8 7 -29 9 -54 5 -27 -4
-46 -2 -59 7 -19 13 -19 14 5 27 21 11 29 11 49 0 15 -8 37 -10 58 -6 18 4 45
7 61 7 15 0 27 4 27 9 0 6 -9 10 -21 10 -27 0 -61 19 -54 30 7 11 93 10 125
-2z m135 -280 c14 -6 26 -18 26 -27 1 -9 3 -23 4 -31 1 -8 3 -29 4 -47 1 -24
5 -31 16 -27 10 4 15 0 15 -11 0 -12 -5 -15 -20 -10 -26 8 -25 -5 1 -39 15
-19 17 -26 7 -26 -26 0 -52 26 -45 44 6 15 3 17 -23 11 -39 -9 -53 0 -40 25 7
14 7 25 -2 39 -10 16 -9 23 5 39 13 14 14 21 5 30 -8 8 -8 15 2 27 15 18 13
18 45 3z m-4520 -89 c-4 -5 -1 -9 5 -9 6 0 5 -11 -5 -30 -9 -17 -13 -35 -10
-40 10 -16 -5 -50 -21 -50 -8 0 -14 -6 -14 -14 0 -15 -64 -76 -81 -76 -5 0 -7
11 -3 25 6 25 -8 35 -21 15 -11 -17 -28 -11 -20 8 4 9 8 25 9 35 0 10 6 21 12
25 5 4 16 21 23 38 8 21 26 38 52 49 21 10 44 24 50 31 12 15 33 9 24 -7z
m3742 -115 c10 -22 9 -26 -13 -34 -13 -5 -37 -7 -53 -4 -19 4 -43 -2 -72 -17
-47 -23 -124 -35 -133 -20 -4 5 -2 21 4 36 8 21 14 25 31 20 12 -4 27 -1 37 9
27 24 60 33 126 34 56 0 62 -2 73 -24z m-3001 -59 c5 -12 15 -14 41 -9 25 5
39 2 53 -11 25 -23 25 -40 0 -73 -14 -17 -17 -29 -10 -36 28 -28 -12 -50 -49
-27 -12 8 -13 14 -3 35 10 23 9 29 -10 48 -14 14 -23 18 -26 10 -6 -19 -37
-14 -60 11 -20 21 -21 25 -6 45 17 25 62 30 70 7z m3128 -121 c4 -10 -4 -19
-27 -29 l-32 -13 30 -12 c21 -8 31 -8 33 0 3 8 8 8 18 -1 8 -6 21 -8 31 -4 31
13 146 12 173 -2 16 -8 28 -9 34 -3 6 6 22 10 37 10 22 0 27 -5 31 -30 3 -17
1 -33 -3 -36 -8 -4 -104 -14 -174 -17 -48 -2 -117 18 -128 38 -5 9 -23 15 -43
15 -28 0 -37 -5 -41 -21 -4 -15 -11 -19 -26 -15 -12 3 -27 0 -34 -6 -10 -8
-19 -4 -38 16 -13 14 -29 26 -35 26 -19 0 -10 21 13 29 21 8 20 9 -11 16 -72
15 -2 49 83 40 28 -3 57 -1 65 5 22 14 37 12 44 -6z m-2564 -352 c0 -4 -38
-41 -84 -82 -65 -57 -82 -77 -74 -87 6 -7 17 -13 25 -13 25 0 8 -25 -19 -28
-34 -4 -53 20 -37 47 11 17 10 23 -5 40 -10 11 -24 17 -32 14 -8 -3 -22 1 -31
8 -8 8 -26 12 -39 11 -29 -4 -43 33 -21 56 14 13 18 13 33 1 9 -7 27 -12 39
-11 13 2 26 -1 29 -7 4 -5 22 -7 42 -4 25 4 39 2 45 -8 7 -11 12 -10 25 9 29
42 104 81 104 54z m3383 -289 c4 -3 0 -14 -8 -23 -20 -22 -12 -42 24 -63 22
-13 30 -14 34 -5 2 7 8 9 13 5 5 -5 1 -13 -9 -18 -10 -6 -17 -22 -17 -39 0
-17 -4 -30 -8 -30 -5 0 -16 -17 -25 -37 -16 -37 -21 -71 -15 -122 3 -20 -4
-27 -35 -40 -37 -14 -39 -13 -65 12 -24 25 -25 29 -13 49 9 14 13 44 11 83 -4
101 -2 124 14 140 8 8 18 25 22 38 12 39 59 69 77 50z m-3363 -337 c0 -10 11
-12 44 -9 26 3 46 1 50 -6 4 -6 18 -11 30 -11 13 0 29 -6 35 -14 7 -8 21 -12
31 -9 43 11 59 -39 23 -69 -13 -10 -18 -9 -33 9 -13 17 -20 19 -29 10 -9 -9
-17 -8 -32 2 -15 9 -25 9 -32 2 -7 -7 -20 -6 -41 3 -38 16 -101 15 -118 -2 -7
-7 -20 -12 -30 -12 -9 0 -21 -8 -27 -17 -9 -17 -10 -17 -16 0 -4 9 -4 32 -1
50 5 26 16 37 59 58 59 31 87 35 87 15z m-1262 -537 c9 -35 8 -46 -6 -68 -9
-14 -23 -30 -30 -34 -10 -7 -11 -12 -1 -23 10 -12 8 -17 -7 -29 -27 -20 -36
-18 -34 8 4 44 1 51 -15 37 -8 -7 -15 -18 -15 -25 0 -18 -32 -28 -41 -13 -5 7
-6 22 -2 33 4 11 7 29 8 41 2 29 14 45 33 42 24 -4 42 10 42 33 0 16 26 36 51
38 4 1 11 -18 17 -40z m188 -16 c4 -16 11 -34 17 -40 12 -16 28 -7 21 12 -3 7
3 18 13 23 14 8 24 5 43 -10 29 -23 33 -77 8 -105 -12 -12 -14 -23 -7 -34 6
-12 4 -21 -6 -29 -19 -16 -35 -4 -35 26 0 13 -4 24 -9 24 -5 0 -17 7 -25 16
-9 8 -16 11 -16 5 0 -23 -36 -10 -52 19 -15 26 -15 33 -3 58 8 15 16 35 19 45
8 26 25 21 32 -10z m4442 21 c12 -4 22 -13 22 -21 0 -11 7 -13 30 -8 17 4 30
2 30 -3 0 -12 -24 -22 -51 -22 -25 0 -24 -25 2 -44 18 -12 20 -21 15 -48 -4
-18 -10 -60 -14 -93 -4 -33 -11 -59 -17 -59 -5 1 -16 -1 -24 -4 -16 -6 -51 32
-51 55 0 8 -6 13 -12 10 -8 -2 -11 -17 -9 -38 8 -67 6 -84 -9 -84 -10 0 -16
12 -18 33 -3 26 -7 32 -28 32 -34 0 -30 16 9 36 48 25 68 52 61 83 -9 34 -9
28 1 96 10 80 18 91 63 79z m-4076 -44 c-1 -7 2 -18 8 -26 7 -7 9 -23 5 -36
-5 -21 -3 -20 20 7 14 17 23 35 21 41 -7 18 11 37 27 31 9 -3 17 -17 19 -32 2
-14 8 -24 13 -23 6 1 9 8 7 14 -3 15 24 37 36 30 6 -3 13 -20 16 -38 9 -46 9
-49 1 -84 -6 -29 -5 -32 25 -37 23 -5 31 -12 28 -24 -2 -14 -14 -18 -46 -19
-49 -1 -57 7 -58 58 0 21 -3 41 -7 44 -10 11 -38 -18 -33 -33 8 -21 -39 -39
-72 -27 -33 12 -36 38 -4 42 34 5 26 20 -10 17 -22 -2 -35 -9 -42 -24 -5 -12
-16 -20 -25 -19 -23 5 -18 108 6 126 15 11 20 10 30 -5 12 -15 13 -14 13 11 0
18 4 26 13 23 6 -2 11 -10 9 -17z m-1649 -176 c10 -3 16 -12 13 -19 -2 -7 4
-15 16 -18 23 -6 20 -30 -5 -35 -11 -2 -21 7 -28 25 l-10 28 -19 -25 c-21 -28
-18 -37 16 -50 26 -10 33 -40 9 -40 -8 0 -15 5 -15 11 0 8 -4 8 -14 -1 -8 -6
-13 -17 -10 -25 9 -22 -11 -25 -72 -9 -69 18 -74 22 -52 38 10 7 15 16 11 19
-12 13 21 38 45 35 21 -2 27 2 33 25 6 20 4 30 -7 34 -7 3 -11 10 -8 15 6 9
51 5 97 -8z m-337 -25 c3 -6 15 -8 26 -6 11 3 32 1 47 -5 14 -6 33 -10 42 -9
20 2 30 -20 19 -40 -7 -11 -12 -10 -27 3 -13 12 -23 14 -33 7 -12 -8 -12 -12
-2 -16 9 -4 10 -8 2 -18 -6 -7 -9 -19 -8 -26 2 -11 -13 -14 -62 -14 -36 0 -74
-3 -85 -7 -25 -9 -127 14 -133 30 -4 14 21 14 90 3 28 -5 51 -4 57 2 5 5 28 8
50 5 30 -3 40 0 37 9 -3 7 -1 15 5 18 15 10 0 25 -26 25 -27 0 -39 14 -31 35
6 18 22 19 32 4z m2639 -89 c5 -8 11 -7 21 0 21 19 219 -8 241 -32 12 -14 14
-21 5 -30 -9 -9 -37 -7 -114 7 -57 10 -111 22 -122 28 -14 7 -32 3 -67 -14
-27 -12 -51 -20 -54 -17 -12 11 10 41 39 54 38 16 43 17 51 4z m2595 -150 c14
-7 25 -7 39 2 14 8 23 9 33 1 12 -10 39 -9 218 1 92 5 128 0 160 -24 l25 -19
-28 -10 c-15 -6 -60 -12 -100 -12 -40 -1 -82 -6 -95 -10 -14 -6 -30 -4 -42 3
-14 9 -25 9 -45 0 -19 -9 -32 -9 -47 -1 -11 6 -29 8 -41 5 -11 -3 -29 0 -39 5
-13 7 -29 6 -52 -2 -29 -11 -38 -10 -60 5 -34 22 -33 34 7 51 39 17 43 18 67
5z m215 -512 c95 3 127 -10 77 -31 -31 -13 -34 -27 -6 -27 7 0 25 -5 41 -11
l28 -11 -40 -14 c-26 -10 -56 -12 -90 -8 -27 4 -75 8 -105 9 -30 1 -61 3 -67
4 -25 2 -12 20 22 31 28 9 39 9 50 0 12 -10 24 -9 59 1 25 7 43 16 41 20 -8
12 -81 19 -111 11 -31 -9 -64 -5 -64 7 0 9 63 28 75 22 5 -3 45 -4 90 -3z
m-2755 -23 c8 -9 22 -12 41 -8 16 3 35 1 41 -5 16 -12 133 -20 144 -9 14 14
25 7 19 -12 -3 -11 -1 -22 4 -26 7 -4 5 -15 -5 -31 -13 -19 -25 -24 -55 -24
-41 0 -118 16 -159 33 -14 6 -38 9 -53 8 -15 -2 -35 3 -43 10 -11 9 -18 9 -26
1 -20 -20 -30 -14 -26 16 2 16 9 27 18 27 8 0 21 8 28 18 16 21 55 22 72 2z
m3380 -170 c0 -10 10 -15 29 -15 16 0 38 -8 49 -17 22 -19 34 -63 17 -61 -15
1 -38 9 -57 19 -10 5 -27 9 -38 9 -13 0 -18 5 -14 15 4 9 0 15 -10 15 -9 0
-16 -7 -16 -15 0 -25 -40 -34 -84 -19 -22 8 -49 11 -60 7 -27 -8 -88 -5 -99 6
-5 5 5 18 21 30 30 21 62 27 75 15 3 -4 43 -7 87 -8 73 -1 81 1 76 17 -2 10 1
17 10 17 8 0 14 -7 14 -15z"/>
</g>
</svg>
